<svg xmlns="http://www.w3.org/2000/svg" xmlns:xlink="http://www.w3.org/1999/xlink" width="500" zoomAndPan="magnify" viewBox="0 0 375 374.999991" height="500" preserveAspectRatio="xMidYMid meet" version="1.0"><defs><g/><clipPath id="3c81eb0d47"><path d="M 321.113281 180 L 367 180 L 367 226.460938 L 321.113281 226.460938 Z M 321.113281 180 " clip-rule="nonzero"/></clipPath></defs><path fill="#ffffff" d="M 345.726562 197.355469 C 342.890625 197.355469 340.023438 196.679688 337.371094 195.285156 C 336.746094 194.953125 336.503906 194.179688 336.832031 193.554688 C 337.164062 192.925781 337.9375 192.6875 338.570312 193.015625 C 344.550781 196.152344 351.789062 195.054688 356.570312 190.277344 L 366.304688 180.554688 C 372.289062 174.574219 372.289062 164.839844 366.304688 158.859375 C 360.3125 152.878906 350.570312 152.875 344.578125 158.859375 L 334.847656 168.578125 C 329.039062 174.378906 328.8125 183.671875 334.332031 189.738281 C 334.808594 190.257812 334.773438 191.070312 334.246094 191.546875 C 333.722656 192.027344 332.910156 191.984375 332.429688 191.460938 C 325.988281 184.382812 326.25 173.535156 333.03125 166.761719 L 342.761719 157.042969 C 349.753906 150.0625 361.128906 150.066406 368.121094 157.042969 C 375.109375 164.027344 375.109375 175.386719 368.121094 182.371094 L 358.390625 192.085938 C 354.921875 195.546875 350.363281 197.355469 345.726562 197.355469 " fill-opacity="1" fill-rule="nonzero"/><g clip-path="url(#3c81eb0d47)"><path fill="#ffffff" d="M 339.042969 226.363281 C 334.253906 226.363281 329.75 224.503906 326.367188 221.121094 C 322.980469 217.738281 321.113281 213.242188 321.113281 208.457031 C 321.113281 203.675781 322.980469 199.175781 326.367188 195.796875 L 336.09375 186.078125 C 341.867188 180.308594 350.816406 179.164062 357.847656 183.289062 C 358.460938 183.648438 358.667969 184.433594 358.308594 185.046875 C 357.945312 185.65625 357.160156 185.863281 356.546875 185.5 C 350.527344 181.96875 342.863281 182.949219 337.910156 187.890625 L 328.179688 197.609375 C 325.28125 200.507812 323.683594 204.359375 323.683594 208.457031 C 323.683594 212.554688 325.28125 216.410156 328.179688 219.304688 C 331.082031 222.203125 334.941406 223.800781 339.042969 223.800781 C 343.144531 223.800781 347.003906 222.203125 349.90625 219.304688 L 359.636719 209.589844 C 365.445312 203.785156 365.667969 194.492188 360.148438 188.425781 C 359.671875 187.902344 359.710938 187.089844 360.234375 186.617188 C 360.757812 186.136719 361.574219 186.179688 362.050781 186.699219 C 368.496094 193.785156 368.234375 204.632812 361.453125 211.402344 L 351.722656 221.121094 C 348.335938 224.503906 343.832031 226.363281 339.042969 226.363281 " fill-opacity="1" fill-rule="nonzero"/></g><g fill="#ffffff" fill-opacity="1"><g transform="translate(0.0000045, 213.983312)"><g><path d="M -1.132812 10.039062 C -1.132812 14.734375 2.914062 17.808594 7.527344 17.808594 C 13.519531 17.808594 17.242188 11.820312 19.589844 7.042969 C 20.886719 4.613281 21.9375 2.105469 23.152344 -0.324219 L 37.074219 -29.386719 C 38.046875 -31.488281 40.71875 -34.972656 42.902344 -34.972656 L 43.472656 -34.972656 L 43.472656 -38.371094 L 27.199219 -38.371094 L 27.199219 -34.972656 L 27.765625 -34.972656 C 30.601562 -34.972656 33.515625 -34.242188 33.515625 -31.488281 C 33.515625 -30.921875 33.433594 -30.277344 33.191406 -29.710938 L 24.769531 -11.65625 L 16.59375 -31.976562 C 16.515625 -32.300781 16.351562 -32.542969 16.269531 -32.867188 C 16.191406 -33.109375 16.109375 -33.351562 16.109375 -33.675781 C 16.109375 -34.484375 16.59375 -34.972656 17.566406 -34.972656 L 18.132812 -34.972656 L 18.132812 -38.371094 L -0.40625 -38.371094 L -0.40625 -34.972656 L 0.160156 -34.972656 C 2.507812 -34.972656 5.179688 -31.976562 6.070312 -29.789062 L 18.617188 1.050781 C 17.566406 3.398438 13.519531 12.386719 10.847656 12.386719 C 10.28125 12.386719 9.957031 12.144531 9.714844 11.65625 C 9.472656 11.171875 9.390625 10.523438 9.308594 9.957031 C 8.90625 7.449219 7.449219 5.019531 4.210938 5.019531 C 1.296875 5.019531 -1.132812 7.203125 -1.132812 10.039062 Z M -1.132812 10.039062 "/></g></g></g><g fill="#ffffff" fill-opacity="1"><g transform="translate(43.469326, 213.983312)"><g><path d="M 26.632812 0.972656 C 33.109375 0.972656 39.746094 -0.324219 44.523438 -4.9375 C 45.007812 -5.421875 46.140625 -6.476562 46.546875 -7.285156 L 47.519531 -16.351562 L 44.363281 -16.351562 C 41.203125 -8.5 36.832031 -2.996094 27.199219 -2.996094 C 16.191406 -2.996094 12.0625 -17.890625 12.0625 -26.796875 C 12.0625 -35.375 16.109375 -49.945312 26.796875 -49.945312 C 35.539062 -49.945312 40.3125 -43.148438 43.957031 -36.265625 L 46.953125 -36.265625 L 46.0625 -45.820312 C 45.65625 -46.464844 44.28125 -47.84375 43.957031 -48.167969 C 39.179688 -51.972656 33.269531 -53.507812 27.28125 -53.507812 C 10.929688 -53.507812 1.132812 -42.175781 1.132812 -26.226562 C 1.132812 -9.957031 9.714844 0.972656 26.632812 0.972656 Z M 26.632812 0.972656 "/></g></g></g><g fill="#ffffff" fill-opacity="1"><g transform="translate(91.795546, 213.983312)"><g><path d="M 19.832031 0.808594 C 32.378906 0.808594 38.046875 -8.339844 38.046875 -19.183594 C 38.046875 -30.277344 32.460938 -38.855469 19.832031 -38.855469 C 7.203125 -38.855469 1.699219 -30.195312 1.699219 -19.183594 C 1.699219 -8.339844 7.203125 0.808594 19.832031 0.808594 Z M 12.628906 -19.183594 C 12.628906 -23.960938 13.03125 -35.699219 19.832031 -35.699219 C 26.632812 -35.699219 27.117188 -23.960938 27.117188 -19.183594 C 27.117188 -14.410156 26.632812 -2.429688 19.832031 -2.429688 C 13.03125 -2.429688 12.628906 -14.410156 12.628906 -19.183594 Z M 12.628906 -19.183594 "/></g></g></g><g fill="#ffffff" fill-opacity="1"><g transform="translate(131.379332, 213.983312)"><g><path d="M 0.40625 0 L 18.375 0 L 18.375 -3.480469 L 17.808594 -3.480469 C 15.300781 -3.480469 14.570312 -4.289062 14.570312 -6.636719 L 14.570312 -27.363281 C 14.570312 -30.601562 17.890625 -34.726562 21.289062 -34.726562 C 25.257812 -34.726562 27.117188 -31.085938 27.117188 -27.363281 L 27.117188 -6.636719 C 27.117188 -4.289062 26.390625 -3.480469 23.878906 -3.480469 L 23.3125 -3.480469 L 23.3125 0 L 41.285156 0 L 41.285156 -3.480469 L 40.71875 -3.480469 C 38.289062 -3.480469 37.5625 -4.289062 37.5625 -6.636719 L 37.5625 -27.523438 C 37.5625 -35.132812 32.21875 -38.855469 24.769531 -38.855469 C 21.046875 -38.855469 17.242188 -37.964844 14.570312 -35.292969 L 14.570312 -38.289062 L 0.40625 -33.917969 L 0.40625 -30.601562 L 0.972656 -30.601562 C 3.480469 -30.601562 4.210938 -29.789062 4.210938 -27.363281 L 4.210938 -6.636719 C 4.210938 -4.289062 3.480469 -3.480469 0.972656 -3.480469 L 0.40625 -3.480469 Z M 0.40625 0 "/></g></g></g><g fill="#ffffff" fill-opacity="1"><g transform="translate(172.905886, 213.983312)"><g><path d="M 0.40625 0 L 18.375 0 L 18.375 -3.480469 L 17.808594 -3.480469 C 15.300781 -3.480469 14.570312 -4.289062 14.570312 -6.636719 L 14.570312 -27.363281 C 14.570312 -30.601562 17.890625 -34.726562 21.289062 -34.726562 C 25.257812 -34.726562 27.117188 -31.085938 27.117188 -27.363281 L 27.117188 -6.636719 C 27.117188 -4.289062 26.390625 -3.480469 23.878906 -3.480469 L 23.3125 -3.480469 L 23.3125 0 L 41.285156 0 L 41.285156 -3.480469 L 40.71875 -3.480469 C 38.289062 -3.480469 37.5625 -4.289062 37.5625 -6.636719 L 37.5625 -27.523438 C 37.5625 -35.132812 32.21875 -38.855469 24.769531 -38.855469 C 21.046875 -38.855469 17.242188 -37.964844 14.570312 -35.292969 L 14.570312 -38.289062 L 0.40625 -33.917969 L 0.40625 -30.601562 L 0.972656 -30.601562 C 3.480469 -30.601562 4.210938 -29.789062 4.210938 -27.363281 L 4.210938 -6.636719 C 4.210938 -4.289062 3.480469 -3.480469 0.972656 -3.480469 L 0.40625 -3.480469 Z M 0.40625 0 "/></g></g></g><g fill="#ffffff" fill-opacity="1"><g transform="translate(214.43244, 213.983312)"><g><path d="M 1.78125 -18.941406 C 1.78125 -8.015625 8.175781 0.808594 19.753906 0.808594 C 27.929688 0.808594 32.058594 -3.480469 35.457031 -10.441406 L 32.945312 -11.980469 C 30.921875 -8.660156 26.875 -6.558594 22.988281 -6.558594 C 15.460938 -6.558594 12.628906 -14.410156 12.628906 -20.722656 L 35.214844 -20.722656 L 35.214844 -22.019531 C 35.214844 -31.570312 30.03125 -38.855469 19.347656 -38.855469 C 7.851562 -38.855469 1.78125 -29.628906 1.78125 -18.941406 Z M 12.789062 -24.125 C 13.4375 -28.898438 14.976562 -35.539062 18.941406 -35.539062 C 22.746094 -35.539062 24.527344 -29.546875 24.851562 -24.125 Z M 12.789062 -24.125 "/></g></g></g><g fill="#ffffff" fill-opacity="1"><g transform="translate(251.99253, 213.983312)"><g><path d="M 18.863281 0.808594 C 26.550781 0.808594 31.003906 -2.832031 34.160156 -9.148438 L 34.324219 -9.550781 L 31.652344 -11.089844 L 31.410156 -10.6875 C 29.628906 -7.933594 26.226562 -6.234375 22.828125 -6.234375 C 15.136719 -6.234375 11.980469 -14.328125 11.980469 -20.964844 C 11.980469 -27.523438 12.789062 -35.457031 18.214844 -35.457031 C 19.832031 -35.457031 20.804688 -34.484375 21.613281 -33.027344 C 21.9375 -32.300781 22.261719 -31.488281 22.503906 -30.679688 C 22.746094 -29.871094 22.910156 -29.140625 23.152344 -28.414062 C 23.800781 -25.984375 25.5 -24.285156 28.414062 -24.285156 C 31.085938 -24.285156 33.515625 -26.066406 33.515625 -28.898438 C 33.515625 -35.699219 25.824219 -38.855469 20.074219 -38.855469 C 7.042969 -38.855469 1.214844 -30.519531 1.214844 -19.023438 C 1.214844 -8.5 6.558594 0.808594 18.863281 0.808594 Z M 18.863281 0.808594 "/></g></g></g><g fill="#ffffff" fill-opacity="1"><g transform="translate(287.60985, 213.983312)"><g><path d="M 3.480469 -34.972656 L 3.480469 -7.851562 C 3.480469 -2.671875 6.394531 0.730469 12.0625 0.730469 C 16.269531 0.730469 19.347656 -1.214844 21.777344 -4.289062 L 22.019531 -4.613281 L 19.914062 -6.960938 L 19.507812 -6.558594 C 18.539062 -5.746094 17.40625 -5.101562 16.269531 -5.101562 C 14.570312 -5.101562 13.84375 -6.476562 13.84375 -8.339844 L 13.84375 -34.972656 L 21.210938 -34.972656 L 21.210938 -38.371094 L 13.84375 -38.371094 L 13.84375 -52.539062 L 10.847656 -52.539062 C 9.390625 -47.355469 5.179688 -38.613281 -0.242188 -38.371094 L -1.375 -38.371094 L -1.375 -34.972656 Z M 3.480469 -34.972656 "/></g></g></g></svg>